<?xml version="1.0" encoding="UTF-8" standalone="no"?>
<svg
   width="24"
   height="24"
   viewBox="0 0 24 24"
   fill="none"
   stroke="currentColor"
   stroke-width="2"
   stroke-linecap="round"
   stroke-linejoin="round"
   class="lucide lucide-circle-dashed preview-icon"
   version="1.1"
   id="svg8"
   sodipodi:docname="empty.svg"
   inkscape:version="1.4.4 (dcaf3e7d9e, 2026-05-05)"
   xmlns:inkscape="http://www.inkscape.org/namespaces/inkscape"
   xmlns:sodipodi="http://sodipodi.sourceforge.net/DTD/sodipodi-0.dtd"
   xmlns="http://www.w3.org/2000/svg"
   xmlns:svg="http://www.w3.org/2000/svg">
  <defs
     id="defs8" />
  <sodipodi:namedview
     id="namedview8"
     pagecolor="#505050"
     bordercolor="#ffffff"
     borderopacity="1"
     inkscape:showpageshadow="0"
     inkscape:pageopacity="0"
     inkscape:pagecheckerboard="1"
     inkscape:deskcolor="#505050"
     inkscape:zoom="50.333333"
     inkscape:cx="11.990066"
     inkscape:cy="12"
     inkscape:window-width="2560"
     inkscape:window-height="1410"
     inkscape:window-x="0"
     inkscape:window-y="0"
     inkscape:window-maximized="1"
     inkscape:current-layer="svg8" />
  <path
     d="M10.1 2.182a10 10 0 0 1 3.8 0"
     id="path1"
     style="stroke:#ffffff" />
  <path
     d="M13.9 21.818a10 10 0 0 1-3.8 0"
     id="path2"
     style="stroke:#ffffff" />
  <path
     d="M17.609 3.721a10 10 0 0 1 2.69 2.7"
     id="path3"
     style="stroke:#ffffff" />
  <path
     d="M2.182 13.9a10 10 0 0 1 0-3.8"
     id="path4"
     style="stroke:#ffffff" />
  <path
     d="M20.279 17.609a10 10 0 0 1-2.7 2.69"
     id="path5"
     style="stroke:#ffffff" />
  <path
     d="M21.818 10.1a10 10 0 0 1 0 3.8"
     id="path6"
     style="stroke:#ffffff" />
  <path
     d="M3.721 6.391a10 10 0 0 1 2.7-2.69"
     id="path7"
     style="stroke:#ffffff" />
  <path
     d="M6.391 20.279a10 10 0 0 1-2.69-2.7"
     id="path8"
     style="stroke:#ffffff" />
</svg>
